# xmcd CD database file
#
# Track frame offsets:
#	150
#	16951
#	32400
#	47464
#	62614
#	71817
#	92377
#	106409
#	138696
#	153396
#	171824
#	193200
#
# Disc length: 2791 seconds
#
# Revision: 2
# Processed by: cddbd v1.5.1PL0 Copyright (c) Steve Scherf et al.
# Submitted via: CDex 1.50
#
DISCID=9b0ae50c
DTITLE=Rod Barthet - Je te promets
DYEAR=2005
DGENRE=Blues
TTITLE0=Je te promets
TTITLE1=Paloma
TTITLE2=Comme une éclaircie
TTITLE3=Elle rentre toute seule chez elle
TTITLE4=Couleur café
TTITLE5=Eclat de Rêve
TTITLE6=Changer le monde
TTITLE7=Belle et bien
TTITLE8=Le nouveau monde
TTITLE9=In the wind
TTITLE10=Ce dimanche là
TTITLE11=Quand les hommes
EXTD=YEAR: 2005
EXTT0=
EXTT1=
EXTT2=
EXTT3=
EXTT4=
EXTT5=
EXTT6=
EXTT7=
EXTT8=
EXTT9=
EXTT10=
EXTT11=
PLAYORDER=
